<svg 
xmlns:dc="http://purl.org/dc/elements/1.1/" 
xmlns:cc="http://creativecommons.org/ns#" 
xmlns:rdf="http://www.w3.org/1999/02/22-rdf-syntax-ns#" 
xmlns:svg="http://www.w3.org/2000/svg" 
xmlns="http://www.w3.org/2000/svg" 
xmlns:xlink="http://www.w3.org/1999/xlink" 
id="svg21940" 
viewBox="0 0 1024 768" 
height="25%" 
width="25%" 
version="1.1">

    <metadata id="metadata21946">

        <rdf:rdf>

            <cc:work rdf:about="">

                <dc:format>image/svg+xml</dc:format>

                <dc:type rdf:resource="http://purl.org/dc/dcmitype/StillImage"></dc:type>

            </cc:work>

        </rdf:rdf>

    </metadata>

  <defs id="defs21944"></defs>
  
    <linearGradient 
            spreadMethod="pad" 
            y2="30%" 
            x2="-10%" 
            y1="120%" 
            x1="30%" 
            id="3d_gradient2-logo-db513bc3-ff79-4e0b-acff-beaf6fd13f68">

        <stop 
            id="stop21921" 
            stop-opacity="1" 
            stop-color="#ffffff" 
            offset="0%">
        </stop>

        <stop 
            id="stop21923" 
            stop-opacity="1" 
            stop-color="#000000" 
            offset="100%">
        </stop>

    </linearGradient>

  <linearGradient 
  gradientTransform="rotate(-30)" 
  spreadMethod="pad" 
  y2="30%" 
  x2="-10%" 
  y1="120%" 
  x1="30%" 
  id="3d_gradient3-logo-db513bc3-ff79-4e0b-acff-beaf6fd13f68">

    <stop 
    id="stop21926" 
    stop-opacity="1" 
    stop-color="#ffffff" 
    offset="0%">
    </stop>

    <stop 
    id="stop21928" 
    stop-opacity="1" 
    stop-color="#cccccc" 
    offset="50%">
    </stop>

    <stop 
    id="stop21930" 
    stop-opacity="1" 
    stop-color="#000000" 
    offset="100%">
    </stop>

  </linearGradient>
  
    <g 
    id="logo-group">

    <image 
    xlink:href="" 
    id="container" 
    x="272" 
    y="144" 
    width="480" 
    height="480" 
    style="display: none;" 
    transform="translate(0 0)">
    </image>
    
    <g 
    id="logo-center" 
    transform="translate(67.11777817499967 0)">

    <image 
    xlink:href="" 
    id="icon_container" 
    x="0" 
    y="0" 
    style="display: none;">
    </image>
      
    <g 
    id="slogan" 
    style="font-style:normal;font-weight:normal;font-size:32px;line-height:1;font-family:'Brandmark Script 2 Color Shadow';font-variant-ligatures:none;text-align:center;text-anchor:middle" 
    transform="translate(0 0)">
        <path 
        id="path21948" 
        style="font-style:normal;font-weight:normal;font-size:32px;line-height:1;font-family:'Brandmark Script 2 Color Shadow';font-variant-ligatures:none;text-align:center;text-anchor:middle" 
        d="m 502.27425,-13.216 c 0.864,-1.408 1.472,-3.2 1.44,-4.864 0,-3.584 -3.392,-4.608 -6.08,-4.608 -2.4,0 -5.248,1.152 -7.136,3.84 -3.2,4.544 -4.448,11.072 -3.872,15.072 0.352,2.176 1.152,3.776 2.464,3.776 0.896,0 1.696,-0.32 2.432,-1.152 0.992,0.896 2.4,1.44 4.064,1.44 5.408,0 8.704,-5.216 9.024,-9.216 0.192,-2.112 -0.736,-3.552 -2.336,-4.288 z m -4.192,1.824 c -0.384,0.224 -0.704,0.096 -0.736,-0.096 0,-0.256 0.768,-0.672 1.632,-0.8 -0.256,0.352 -0.576,0.672 -0.896,0.896 z m 2.72,2.496 c -0.128,1.888 -1.024,4.256 -2.784,5.92 -1.056,0.928 -2.208,1.344 -3.744,1.056 -0.8,-0.128 -1.376,-0.448 -1.792,-0.8 0.224,-0.48 0.448,-1.056 0.64,-1.728 0.864,-2.656 1.792,-6.976 3.008,-9.984 0.928,-2.272 1.824,-3.264 2.848,-3.776 -0.16,-0.64 -0.736,-1.312 -2.208,-1.312 -2.624,0 -4.032,2.176 -5.056,5.28 -0.736,2.304 -1.408,4.736 -2.24,8.928 -0.128,0.672 -0.256,1.248 -0.416,1.728 -0.928,-3.072 0.48,-9.792 2.656,-13.088 1.632,-2.496 3.648,-4.032 6.048,-4.032 1.984,0 2.848,1.536 2.848,3.168 -0.128,1.344 -0.416,2.72 -0.864,3.84 -0.928,0.032 -2.08,0.224 -2.624,0.448 -0.864,0.32 -1.696,1.12 -1.632,1.952 0.064,0.96 1.056,1.408 1.92,1.408 0.896,0 1.984,-0.352 3.2,-1.344 0.192,0.608 0.256,1.376 0.192,2.336 z" 
        stroke-width="0" 
        stroke-linejoin="miter" 
        stroke-miterlimit="2" 
        fill="#fcfcfc" 
        stroke="#fcfcfc" 
        transform="translate(0 471.9846) translate(50 15.968) scale(2.5) translate(-486.49033 22.688)">
        </path>

        <path 
        id="path21950" 
        style="font-style:normal;font-weight:normal;font-size:32px;line-height:1;font-family:'Brandmark Script 2 Color Shadow';font-variant-ligatures:none;text-align:center;text-anchor:middle" 
        d="m 546.67275,-20.384 c 0.544,0 0.992,0.16 1.312,0.544 0.448,-1.472 -0.224,-2.56 -1.664,-2.56 -1.728,0 -3.04,1.12 -4.16,2.816 -2.24,3.744 -4.928,12.48 -6.048,14.304 -0.32,-3.296 -0.032,-6.656 -0.032,-9.92 0.032,-4.928 -0.864,-7.2 -1.952,-7.2 -1.28,0 -2.976,1.408 -4.512,4.864 -0.864,1.664 -2.176,6.464 -3.648,10.144 -0.544,1.376 -1.024,2.752 -1.632,3.648 -0.736,1.088 -1.536,1.6 -2.848,1.312 -0.224,1.344 0.96,2.432 2.144,2.432 1.376,0 2.08,-0.864 2.72,-2.144 0.736,-1.504 1.792,-4 2.464,-6.016 0.64,-1.824 2.048,-6.464 3.264,-8.48 0.032,2.432 -0.064,5.92 -0.064,9.024 0,3.424 0.288,7.616 2.368,7.616 1.888,0 2.816,-1.92 3.456,-3.328 1.504,-3.264 2.656,-6.656 3.968,-9.952 1.44,-3.584 2.72,-7.104 4.864,-7.104 z" 
        stroke-width="0" 
        stroke-linejoin="miter" 
        stroke-miterlimit="2" 
        fill="#fcfcfc" 
        stroke="#fcfcfc" 
        transform="translate(0 471.9846) translate(137.42735000000008 16.688) scale(2.5) translate(-521.46127 22.4)">
        </path>
      </g>
      
      <g 
      id="title" 
      style="font-style:normal;font-weight:normal;font-size:72px;line-height:1;font-family:'Brandmark Script 2 Color Shadow';font-variant-ligatures:normal;text-align:center;text-anchor:middle" transform="translate(0 0)">
        
        <!-- A -->

        <g 
        id="path21953" 
        aria-label="~A" 
        transform="translate(0 353.8278) translate(50 -131.22039999999998) scale(4.55) translate(-429.2414 51.048)"> 
            
            <path 
            class="c1" 
            d="M125.09262,122.25538c-1.38276-5.53137-3.61201-9.73396-6.62366-12.60518 c-2.90076-2.7655-6.60389-4.25791-11.0201-4.5359c-0.38967-0.02453-0.79311-0.0594-1.22459-0.07017 c-0.41898-0.01045-0.86501,0.00259-1.31018,0.0192c-4.39704,0.16398-9.73133,1.46101-9.66911,5.14042 c-1.44462-1.97439-0.53561-5.05148,1.40546-6.83589c2.06197-1.89555,6.80817-3.19022,10.64753-3.37012 c1.27219-0.03661,2.61643,0.07308,3.82574,0.21635c5.65411,0.66988,9.41296,3.74063,12.38926,7.06372 c1.42279,1.58856,2.55598,3.33286,3.37895,4.96341c1.36639,2.79816,2.33843,5.26424,2.72073,6.88637 C129.55219,120.54218,128.63211,121.42491,125.09262,122.25538z" 
            transform="translate(374.084559 -125.19806)" 
            stroke-width="0" 
            stroke-linejoin="miter" 
            stroke-miterlimit="2" 
            fill="#fcfcfc" 
            stroke="#fcfcfc">
            </path> 

            <path 
            class="c1" 
            d="M136.82941,79.98242c-0.44637,3.33836-3.44173,11.93958-5.25684,17.4248 c-0.87137,2.63328-1.76262,5.37259-2.59277,7.99316c-0.7601,2.39944-1.48788,4.68699-2.08788,6.84082 c-1.09672,3.93692-1.78918,7.2253-1.80483,9.2812c-0.00166,0.2179-0.01543,0.51551,0.00554,0.73297 c0.15091,1.56476,0.95432,2.94592,2.99927,2.94592c0.87338,0,1.60977-0.24802,2.18433-0.64732 c-0.51399-1.63962,1.22643-7.80286,5.25632-20.59402c0.71449-2.26785,1.52014-4.79099,2.37695-7.48828 c1.0201-3.21122,2.15002-6.71467,3.37773-10.57119c1.42099-4.46365,1.93387-9.96793-0.98737-9.60496 C137.77342,76.60946,136.83533,79.60249,136.82941,79.98242z" 
            transform="translate(374.084559 -125.19806)" 
            stroke-width="0" 
            stroke-linejoin="miter" 
            stroke-miterlimit="2" 
            fill="#fcfcfc" 
            stroke="#fcfcfc"></path> 
            <path 
            class="c1" 
            d="M77.64332,94.06041c-1.24148-0.83561-5.519-2.52972-8.85458-1.97974 c-7.96281,1.9282-12.7464,9.12257-13.53387,16.9002c-0.26065,2.57442-0.04534,6.14063,1.1815,8.60477 c1.69764,3.12912,4.26491,5.78491,7.15774,6.84104c4.03209,1.47207,10.66402,3.07252,11.52875,1.20698 c-9.19495-0.64304-15.16911-6.97517-14.97945-15.38779c0.1757-7.79379,5.28279-13.7859,12.85758-13.99062 c3.73499-0.10094,6.58154,2.49126,6.59206,6.11354c-0.14743,5.45505-3.60066,8.77437-6.48922,9.58433 c0.08399,0.24114,1.18955,0.94659,1.97839,1.01649c0.69609-0.03596,2.89668-0.82997,4.19698-2.67619 c1.80649-2.56492,2.71412-6.75825,2.60663-9.34792C81.7724,98.21268,80.44769,95.94797,77.64332,94.06041z" 
            transform="translate(374.084559 -125.19806)" 
            stroke-width="0" 
            stroke-linejoin="miter" 
            stroke-miterlimit="2" 
            fill="#fcfcfc" 
            stroke="#fcfcfc">
            </path> 
            <path 
            class="c2" 
            d="M141.28302,85.9145c1.43367-4.51608,3.02736-11.76443-1.68004-11.76443 c-7.0587,0-15.52608,7.3976-23.79993,19.51302c-1.54547,2.26304-3.12737,4.43108-4.67934,6.55099 c-1.22753,1.67674-2.42006,3.33598-3.67485,4.90022c-1.73708,2.16545-3.53147,4.21201-5.32647,6.11813 c-1.53606,1.63113-3.09741,3.13489-4.68066,4.53711c-6.87208,6.08631-14.23175,9.86415-22.31885,9.86415 c-10.92192,0-16.27375-4.80246-18.68649-8.04803c3.02499,7.3476,11.55453,12.51298,20.93472,12.51298 c13.51049,0,25.4971-6.32082,36.05286-17.99853c2.58496-2.85971,5.01942-5.96009,7.42944-9.44249 c3.80077-5.49199,11.43637-17.7972,15.976-22.67519c1.58556-1.70373,3.02444-2.64578,4.23157-2.60526 C142.60814,77.42908,142.25917,82.65893,141.28302,85.9145z" 
            transform="translate(374.084559 -125.19806)" 
            stroke-width="0" 
            stroke-linejoin="miter" 
            stroke-miterlimit="2" 
            fill="#5193f0" 
            stroke="#5193f0">
                </path> 
                <path 
                class="c2" 
                d="M144.53355,104.17582c0.39841-0.50233,0.55414-2.43044-0.41968-4.15625 c-0.45416-0.80489-0.994-1.45293-1.64897-1.95809c-0.8492-0.65496-1.89714-1.07217-3.18823-1.37398 c-0.48238-0.05838-0.91788-0.15357-1.36719-0.21582c-2.07835-0.19843-4.21326,0.20538-6.33691,0.93555 c-2.23376,0.76804-5.26775,2.19518-7.39953,3.23203c-1.15118,0.57867-2.19753,1.31377-3.31963,2.01836 c-0.26033,0.14485-0.49959,0.28857-0.76707,0.41391c5.40691-2.21455,9.01257-3.1898,14.15494-3.17456 C138.3515,99.90914,142.2498,101.69165,144.53355,104.17582z" 
            transform="translate(374.084559 -125.19806)" 
            stroke-width="0" 
            stroke-linejoin="miter" 
            stroke-miterlimit="2" 
            fill="#5193f0" 
            stroke="#5193f0">
                </path> 
                
                <path 
                class="c2" 
                d="M68.78871,92.08068c1.61726-0.33227,3.05547-0.35249,4.57478-0.35278 c7.45277-0.00145,12.34407,4.66415,12.41438,10.07243c0.09205,7.07986-6.18483,11.7416-10.70243,11.17295 c3.10662-1.14285,4.5176-7.03851,4.5176-10.60448C79.59305,96.63396,75.81932,92.34827,68.78871,92.08068z" 
            transform="translate(374.084559 -125.19806)" 
            stroke-width="0" 
            stroke-linejoin="miter" 
            stroke-miterlimit="2" 
            fill="#5193f0" 
            stroke="#5193f0">
                </path> 
                
                <path 
                class="c1" 
                d="M140.52545,99.64944c-2.32419-0.93581-8.93738-1.83205-20.42878,3.41756 c-4.66346,2.1304-12.44092,6.36883-17.97429,8.16542c-1.14057,0.37032-2.06676,0.71285-3.36303,0.83339 c-1.62093,0.15072-2.98055-0.27528-3.51438-1.86207c-1.51522,2.69732,1.76159,3.84747,4.29871,4.38059 c2.61457,0.54939,6.93121,0.04034,9.15434-0.57154c1.83273-0.65044,3.34386-1.32035,4.72594-1.9127 c1.86957-0.80127,3.46044-1.64703,5.04499-2.44989c1.54693-0.79349,3.14939-1.59718,5.04401-2.37242 c0.76807-0.31428,1.5857-0.56591,2.46899-0.87602c1.01193-0.42742,2.00969-0.70956,2.99785-1.00137 c5.68645-1.67919,10.67719-2.17887,15.55371-1.22461C144.42769,102.48694,142.74977,100.54504,140.52545,99.64944z" 
                transform="translate(374.084559 -125.19806)" 
                stroke-width="0" 
                stroke-linejoin="miter" 
                stroke-miterlimit="2" 
                fill="#fcfcfc" 
                stroke="#fcfcfc">
                </path> 
                
                <path 
                class="c2" 
                d="M107.29797,99.99773c-11.62537-0.20195-17.92891,5.4443-16.94048,10.73722 c0.45502,2.43661,2.75578,4.58636,7.08424,5.03458c2.85921,0.29608,6.62106-0.144,11.2563-1.75674 c-9.22102,1.8529-12.90895-1.51183-13.45305-3.80905C94.55555,107.29295,97.10422,101.09835,107.29797,99.99773z" 
                transform="translate(374.084559 -125.19806)" 
                stroke-width="0" 
                stroke-linejoin="miter" 
                stroke-miterlimit="2" 
                fill="#5193f0" 
                stroke="#5193f0">
                </path> 
                
                <radialGradient 
                id="77c63ef3-090b-4c90-992c-3f7609b51234" 
                cx="74.32803" 
                cy="96.4309" 
                r="20.62301" 
                gradientUnits="userSpaceOnUse" 
                transform="translate(374.084559 -125.19806)"> 

                <stop 
                offset="0.47424" style="stop-color:#000000;stop-opacity:0"></stop> <stop offset="0.95081" style="stop-color:#000000">
                </stop> </radialGradient> <path class="highlight" fill="url(#77c63ef3-090b-4c90-992c-3f7609b51234)" d="M68.78871,92.08068c1.61726-0.33227,3.05547-0.35249,4.57478-0.35278 c7.45277-0.00145,12.34407,4.66415,12.41438,10.07243c0.09205,7.07986-6.18483,11.7416-10.70243,11.17295 c3.10662-1.14285,4.5176-7.03851,4.5176-10.60448C79.59305,96.63396,75.81932,92.34827,68.78871,92.08068z" transform="translate(374.084559 -125.19806)" stroke-width="0" stroke-linejoin="miter" stroke-miterlimit="2" opacity="0.52">
                </path> <linearGradient id="a7782062-4386-487c-9bb7-ffee884fcb3e" gradientUnits="userSpaceOnUse" x1="75.6512" y1="80.15613" x2="78.6136" y2="110.31873"> <stop offset="0.08274" style="stop-color:#000000">
                </stop> <stop offset="0.24317" style="stop-color:#000000;stop-opacity:0.68377"></stop> <stop offset="0.59007" style="stop-color:#000000;stop-opacity:0">
                </stop> </linearGradient> <path class="highlight" fill="url(#a7782062-4386-487c-9bb7-ffee884fcb3e)" d="M68.78871,92.08068c1.61726-0.33227,3.05547-0.35249,4.57478-0.35278 c7.45277-0.00145,12.34407,4.66415,12.41438,10.07243c0.09205,7.07986-6.18483,11.7416-10.70243,11.17295 c3.10662-1.14285,4.5176-7.03851,4.5176-10.60448C79.59305,96.63396,75.81932,92.34827,68.78871,92.08068z" transform="translate(374.084559 -125.19806)" stroke-width="0" stroke-linejoin="miter" stroke-miterlimit="2" opacity="0.52">
                </path> <linearGradient id="8f6333c4-012b-4936-b78c-ed7950a85065" gradientUnits="userSpaceOnUse" x1="94.74742" y1="91.85484" x2="105.59065" y2="127.89264"> <stop offset="0.2018" style="stop-color:#000000"></stop> <stop offset="0.26282" style="stop-color:#000000;stop-opacity:0.68377">
                </stop> <stop offset="0.39476" style="stop-color:#000000;stop-opacity:0"></stop> <stop offset="0.57499" style="stop-color:#000000;stop-opacity:0"></stop> <stop offset="0.75145" style="stop-color:#000000">
                </stop> </linearGradient> <path class="highlight" fill="url(#8f6333c4-012b-4936-b78c-ed7950a85065)" d="M107.29797,99.99773c-11.62537-0.20195-17.92891,5.4443-16.94048,10.73722 c0.45502,2.43661,2.75578,4.58636,7.08424,5.03458c2.85921,0.29608,6.62106-0.144,11.2563-1.75674 c-9.22102,1.8529-12.90895-1.51183-13.45305-3.80905C94.55555,107.29295,97.10422,101.09835,107.29797,99.99773z" transform="translate(374.084559 -125.19806)" stroke-width="0" stroke-linejoin="miter" stroke-miterlimit="2" opacity="0.52">
                </path> <linearGradient id="a6f8f751-43f9-41ab-9584-57176c72f75a" gradientUnits="userSpaceOnUse" x1="126.4556" y1="107.389" x2="44.61165" y2="131.19499"> 
                <stop offset="0.13562" style="stop-color:#000000"></stop> <stop offset="0.28747" style="stop-color:#000000;stop-opacity:0.68377">
                </stop> <stop offset="0.6158" style="stop-color:#000000;stop-opacity:0"></stop> <stop offset="0.86507" style="stop-color:#000000">
                </stop> </linearGradient> <path class="highlight" fill="url(#a6f8f751-43f9-41ab-9584-57176c72f75a)" d="M108.69805,114.01279c-4.63525,1.61273-8.39709,2.05283-11.25635,1.75674 c-6.87207,6.0863-14.23169,9.86414-22.31885,9.86414c-10.92188,0-16.27369-4.80246-18.68647-8.048 c3.02496,7.3476,11.55451,12.51297,20.93476,12.51297c13.51044,0,25.49707-6.3208,36.0528-17.9985 C112.04192,112.69247,110.53069,113.36234,108.69805,114.01279z" transform="translate(374.084559 -125.19806)" stroke-width="0" stroke-linejoin="miter" stroke-miterlimit="2" opacity="0.52">
                </path> <radialGradient id="ddac03f6-a2b0-4c40-8c3b-7dae6ed8cbad" cx="100.01133" cy="106.33675" r="16.17414" gradientUnits="userSpaceOnUse" transform="translate(374.084559 -125.19806)"> 
                <stop offset="0.35694" style="stop-color:#000000"></stop> <stop offset="0.87533" style="stop-color:#000000;stop-opacity:0">
                </stop> </radialGradient> <path class="highlight" fill="url(#ddac03f6-a2b0-4c40-8c3b-7dae6ed8cbad)" d="M108.69805,114.01279c-4.63525,1.61273-8.39709,2.05283-11.25635,1.75674 c-6.87207,6.0863-14.23169,9.86414-22.31885,9.86414c-10.92188,0-16.27369-4.80246-18.68647-8.048 c3.02496,7.3476,11.55451,12.51297,20.93476,12.51297c13.51044,0,25.49707-6.3208,36.0528-17.9985 C112.04192,112.69247,110.53069,113.36234,108.69805,114.01279z" transform="translate(374.084559 -125.19806)" stroke-width="0" stroke-linejoin="miter" stroke-miterlimit="2" opacity="0.52">
                </path> <linearGradient id="0a53bd21-4387-41e2-9800-42ac714820e0" gradientUnits="userSpaceOnUse" x1="104.06085" y1="121.56391" x2="148.45816" y2="63.69971"> <stop offset="0.08802" style="stop-color:#000000">
                </stop> <stop offset="0.34781" style="stop-color:#000000;stop-opacity:0.18417"></stop> <stop offset="0.40645" style="stop-color:#000000;stop-opacity:0">
                </stop> <stop offset="0.55246" style="stop-color:#000000;stop-opacity:0"></stop> <stop offset="0.89231" style="stop-color:#000000">
                </stop> </linearGradient> <path class="highlight" fill="url(#0a53bd21-4387-41e2-9800-42ac714820e0)" d="M120.09667,103.06699c0.25714-0.12082,0.4964-0.2645,0.75671-0.40936 c3.80084-5.492,11.43639-17.79721,15.97601-22.6752c1.58557-1.70374,3.02448-2.64578,4.23157-2.60529 c1.54718,0.05194,1.19824,5.28177,0.22205,8.53735c1.43372-4.51608,3.02734-11.76443-1.68005-11.76443 c-7.05872,0-15.52605,7.39761-23.79992,19.51303c-1.54541,2.26303-3.12732,4.43106-4.67932,6.55099 c-1.22754,1.67673-2.42004,3.33597-3.6748,4.90021c-1.73712,2.16544-3.53149,4.21198-5.32654,6.1181 C107.65582,109.43579,115.43322,105.19739,120.09667,103.06699z" transform="translate(374.084559 -125.19806)" stroke-width="0" stroke-linejoin="miter" stroke-miterlimit="2" opacity="0.52">
                </path> <radialGradient id="edc5ae1e-4e1e-4610-8568-b02bae10222e" cx="133.07103" cy="111.49892" r="25.03176" gradientUnits="userSpaceOnUse" transform="translate(374.084559 -125.19806)"> <stop offset="0.55884" style="stop-color:#000000;stop-opacity:0"></stop> <stop offset="0.7252" style="stop-color:#000000"></stop> </radialGradient> <path class="highlight" fill="url(#edc5ae1e-4e1e-4610-8568-b02bae10222e)" d="M144.11388,100.01956c-0.45416-0.8049-0.99396-1.45291-1.64899-1.9581 c-0.84918-0.65497-1.89709-1.07217-3.18823-1.37396c-0.48236-0.05838-0.91785-0.15356-1.36719-0.21582 c-2.07837-0.19846-4.21326,0.20535-6.33691,0.93555c-2.23376,0.76804-5.26769,2.19516-7.39953,3.23203 c-1.15112,0.57864-2.19751,1.31375-3.31958,2.01834c-0.26038,0.14487-0.49963,0.28857-0.76709,0.41391 c11.5017-5.25412,18.11492-4.35788,20.43908-3.42206c2.22437,0.8956,3.90222,2.83749,4.00806,4.52634 C144.93193,103.67349,145.08769,101.74536,144.11388,100.01956z" transform="translate(374.084559 -125.19806)" stroke-width="0" stroke-linejoin="miter" stroke-miterlimit="2" opacity="0.52"></path> <radialGradient id="b2a23519-e3ea-4d0f-a43a-d4c6931a4bbf" cx="69.75931" cy="105.44591" r="20.03327" gradientUnits="userSpaceOnUse" transform="translate(374.084559 -125.19806)"> <stop offset="0.41825" style="stop-color:#000000;stop-opacity:0"></stop> <stop offset="0.50907" style="stop-color:#000000"></stop> </radialGradient> <path class="highlight" fill="url(#b2a23519-e3ea-4d0f-a43a-d4c6931a4bbf)" d="M73.10381,111.95313c0.08398,0.24112,1.18958,0.94656,1.97839,1.01648 c3.10205-1.15033,4.51086-7.03799,4.51086-10.6008C79.44561,107.82382,75.99236,111.14316,73.10381,111.95313z" transform="translate(374.084559 -125.19806)" stroke-width="0" stroke-linejoin="miter" stroke-miterlimit="2" opacity="0.52"></path> <linearGradient id="782dbb7e-811c-4808-8caf-b5ac9548ef9e" gradientUnits="userSpaceOnUse" x1="72.39916" y1="83.64932" x2="60.598" y2="138.18675"> <stop offset="0.11358" style="stop-color:#000000"></stop> <stop offset="0.18501" style="stop-color:#000000;stop-opacity:0.68377"></stop> <stop offset="0.33944" style="stop-color:#000000;stop-opacity:0"></stop> <stop offset="0.51803" style="stop-color:#000000;stop-opacity:0"></stop> <stop offset="0.79746" style="stop-color:#000000"></stop> </linearGradient> <path class="highlight" fill="url(#782dbb7e-811c-4808-8caf-b5ac9548ef9e)" d="M56.43645,117.58575c2.41278,3.24551,7.76453,8.04791,18.68641,8.04791 c-9.19495-0.64304-15.16907-6.97519-14.97943-15.38779c0.17572-7.79379,5.28278-13.78592,12.85761-13.99063 c3.73499-0.10095,6.58148,2.49127,6.59204,6.11356c0-5.73486-3.77368-10.02054-10.80432-10.28815 c-7.96283,1.92822-12.7464,9.12259-13.53388,16.90021C54.99419,111.5553,55.20952,115.12149,56.43645,117.58575z" transform="translate(374.084559 -125.19806)" stroke-width="0" stroke-linejoin="miter" stroke-miterlimit="2" opacity="0.52"></path> <radialGradient id="04974d82-0fda-4e1d-8e50-00b8ba1c34e8" cx="119.55479" cy="106.24338" r="32.7922" gradientUnits="userSpaceOnUse" transform="translate(374.084559 -125.19806)"> <stop offset="0.16319" style="stop-color:#000000;stop-opacity:0"></stop> <stop offset="0.92441" style="stop-color:#000000"></stop> </radialGradient> <path class="highlight" fill="url(#04974d82-0fda-4e1d-8e50-00b8ba1c34e8)" d="M140.52544,99.64944c-2.32416-0.93582-8.93738-1.83206-20.42876,3.41754 c-4.66345,2.1304-12.44092,6.36884-17.9743,8.16544c-1.1405,0.37033-2.06677,0.71286-3.36304,0.83337 c-0.71641,0.06662-1.3833,0.02006-1.94891-0.1898c-0.47906-0.17775-0.88492-0.47269-1.19224-0.91454 c-0.16634-0.23916-0.27609-0.48098-0.37346-0.75684c0.05965,0.23485,0.13765,0.47253,0.28423,0.76242 c1.10835,2.1919,4.93011,4.70129,13.16909,3.04575c1.8327-0.65045,3.34387-1.32034,4.72595-1.91269 c1.86951-0.80127,3.46045-1.64703,5.04492-2.44989c1.547-0.79349,3.14941-1.5972,5.04407-2.37244 c0.76807-0.31427,1.58569-0.56592,2.46899-0.87601c1.0119-0.42743,2.00964-0.70956,2.9978-1.00137 c5.68646-1.6792,10.67725-2.17889,15.55371-1.22461C144.42766,102.48694,142.7498,100.54504,140.52544,99.64944z" transform="translate(374.084559 -125.19806)" stroke-width="0" stroke-linejoin="miter" stroke-miterlimit="2" opacity="0.52"></path> <linearGradient id="65e23968-4bf2-4db0-aa2a-b4f4d752376a" gradientUnits="userSpaceOnUse" x1="111.36739" y1="98.01141" x2="135.05634" y2="128.61185"> <stop offset="0.30668" style="stop-color:#000000"></stop> <stop offset="0.34789" style="stop-color:#000000;stop-opacity:0.83184"></stop> <stop offset="0.47822" style="stop-color:#000000;stop-opacity:0.3"></stop> <stop offset="0.69344" style="stop-color:#000000"></stop> </linearGradient> <path class="highlight" fill="url(#65e23968-4bf2-4db0-aa2a-b4f4d752376a)" d="M125.08709,121.5224c0.01563-2.05591,0.70813-5.34424,1.80481-9.28116 c-0.82294-1.63058-1.95618-3.37488-3.37891-4.96344c-1.89465,0.77521-3.49707,1.57892-5.04407,2.37241 c3.01172,2.87119,5.24097,7.07379,6.62372,12.60516C125.07171,122.0379,125.08544,121.7403,125.08709,121.5224z" transform="translate(374.084559 -125.19806)" stroke-width="0" stroke-linejoin="miter" stroke-miterlimit="2" opacity="0.52"></path> <linearGradient id="09d854eb-280c-49ed-ba49-f054c33ab7ad" gradientUnits="userSpaceOnUse" x1="88.71577" y1="105.14396" x2="117.99981" y2="105.03786"> <stop offset="0.15034" style="stop-color:#000000"></stop> <stop offset="0.2701" style="stop-color:#000000;stop-opacity:0.77864"></stop> <stop offset="0.52905" style="stop-color:#000000;stop-opacity:0.3"></stop> <stop offset="0.75089" style="stop-color:#000000"></stop> </linearGradient> <path class="highlight" fill="url(#09d854eb-280c-49ed-ba49-f054c33ab7ad)" d="M104.91412,105.06332c0.44519-0.0166,0.89117-0.02966,1.31018-0.0192 c0.43146,0.01074,0.83484,0.04562,1.22461,0.07016c1.25476-1.56424,2.44727-3.22348,3.6748-4.90021 c-1.20929-0.14328-2.55353-0.25296-3.82574-0.21637c-9.15446,0.98842-12.1432,6.08096-12.15793,9.21785 c-0.00155,0.33041,0.02969,0.67422,0.10469,0.98906c-0.00703-0.41328,0.05782-0.80263,0.16953-1.13594 c0.21996-0.65629,0.63869-1.21483,1.20547-1.6899C98.62135,105.70107,102.29338,105.16105,104.91412,105.06332z" transform="translate(374.084559 -125.19806)" stroke-width="0" stroke-linejoin="miter" stroke-miterlimit="2" opacity="0.52"></path> <linearGradient id="4a3418a8-0522-4365-92f9-3482ee98e909" gradientUnits="userSpaceOnUse" x1="141.6515" y1="67.49817" x2="134.4149" y2="101.14832"> <stop offset="0.25452" style="stop-color:#000000"></stop> <stop offset="0.3584" style="stop-color:#000000;stop-opacity:0.68377"></stop> <stop offset="0.583" style="stop-color:#000000;stop-opacity:0"></stop> <stop offset="0.70124" style="stop-color:#000000;stop-opacity:0"></stop> <stop offset="0.94842" style="stop-color:#000000"></stop> </linearGradient> <path class="highlight" fill="url(#4a3418a8-0522-4365-92f9-3482ee98e909)" d="M137.90947,96.47168c1.01965-3.2099,2.14905-6.71185,3.37622-10.56656 c0.97412-3.25623,1.32098-8.4761-0.22473-8.52798c-1.20709-0.0405-2.646,0.90155-4.23157,2.60529 c-0.44635,3.33835-3.44171,11.93958-5.25684,17.4248C133.69621,96.67703,135.8311,96.27322,137.90947,96.47168z" transform="translate(374.084559 -125.19806)" stroke-width="0" stroke-linejoin="miter" stroke-miterlimit="2" opacity="0.52"></path> <linearGradient id="caa7c24b-e5a5-4ef2-9294-443d542af4c6" gradientUnits="userSpaceOnUse" x1="134.30606" y1="93.33044" x2="126.79376" y2="128.26265"> <stop offset="0.23244" style="stop-color:#000000"></stop> <stop offset="0.32843" style="stop-color:#000000;stop-opacity:0.68377"></stop> <stop offset="0.53599" style="stop-color:#000000;stop-opacity:0"></stop> <stop offset="0.65329" style="stop-color:#000000;stop-opacity:0"></stop> <stop offset="0.96242" style="stop-color:#000000"></stop> </linearGradient> <path class="highlight" fill="url(#caa7c24b-e5a5-4ef2-9294-443d542af4c6)" d="M135.52946,103.9696c-2.09656,0.27615-4.26636,0.75653-6.54968,1.43079 c-0.76007,2.39941-1.48785,4.68698-2.08788,6.84082c-1.09668,3.93692-1.78918,7.22528-1.80481,9.28119 c-0.00165,0.2179-0.01538,0.5155,0.00555,0.73297c0.15094,1.56476,0.95428,2.94592,2.99926,2.94592 c0.87335,0,1.6098-0.24802,2.18433-0.64731C129.76237,122.91479,131.50175,116.75415,135.52946,103.9696z" transform="translate(374.084559 -125.19806)" stroke-width="0" stroke-linejoin="miter" stroke-miterlimit="2" opacity="0.52"></path> </g>
        <!--A-->


        <!--B-->
        <g 
        id="path21955" 
        aria-label="b" 
        transform="translate(0 353.8278) translate(431.0109940000004 -116.4784) scale(4.55) translate(-512.98008 47.808)"> 
            <path 
            class="c1" 
            d="M86.18893,125.18121c0.27647-1.06502,0.65859-2.37578,0.93516-3.16484 c0.88219-2.81417,1.86958-5.39835,3.02656-7.78438c1.18182-2.43722,2.51954-4.70499,3.93916-6.72567 c0.78809-1.12177,2.02902-2.89163,3.44081-4.427c1.63352-1.77652,3.49516-3.24471,5.0753-3.17155 c1.31778-0.68904,0.16638-3.19159-0.75716-3.62181c-1.0813-0.5037-2.27434-0.077-4.17408,1.08868 c-0.46704,0.36498-1.66696,1.35611-2.60667,2.53022c-1.41541,1.76846-1.90828,2.52509-3.63202,5.21661 c-2.05287,3.63336-3.47552,7.48045-4.36791,10.96227C86.11225,119.81306,85.43987,124.2093,86.18893,125.18121z" 
            transform="translate(431.981497 -125.53706)" 
            stroke-width="0" 
            stroke-linejoin="miter" 
            stroke-miterlimit="2" 
            fill="#fcfcfc" 
            stroke="#fcfcfc">
            </path> 
            
            <path 
            class="c2" 
            d="M99.22164,83.36359c0.10349-1.75556-0.50693-3.27691-1.63698-4.29176 c-0.94853-0.85184-2.24783-1.34277-3.74339-1.34277c-0.87399,0-1.58669,0.07458-1.8916,0.28809 c0.3478,1.4724-3.65856,12.58756-7.35732,23.23499c-2.49782,7.19034-3.66866,13.25474-3.59005,17.02019 c0.08515,4.07883,1.4155,7.27042,4.01815,7.27042c0.56258,0,1.00285-0.20058,1.16848-0.36153 c-0.66018-2.50236,4.3428-17.5866,5.25497-20.05684C95.37454,94.47974,99.00578,87.02554,99.22164,83.36359z" 
            transform="translate(431.981497 -125.53706)" 
            stroke-width="0" 
            stroke-linejoin="miter" 
            stroke-miterlimit="2" 
            fill="#5193f0" 
            stroke="#5193f0">
            </path> 

            <path 
            class="c1" 
            d="M115.92722,107.6941c-0.21223,0.38887-1.81297,3.40166-4.03223,4.53613 c-0.85693,0.43806-1.94072,0.7049-3.0957,0.8543c-1.82307,0.23582-3.86521,0.1942-5.79002,0.18697 c-1.17442-0.0044-2.35552-0.09238-3.57131-0.11471c-3.35719-0.06163-6.79953-0.07988-9.28731,1.0752 c-0.45,0.20894-0.85825,0.47863-1.24261,0.77526c-1.5965,1.23209-2.3102,3.09525-2.30896,4.35104 c0.00121,1.22832,0.63036,2.24655,1.2527,2.64416c0.80669,0.51539,3.01234,0.20774,3.13189-0.44371 c-0.16611,0.01479-0.32543,0.02837-0.46271,0.02287c-0.52969-0.04179-0.8362-0.19245-0.95-0.42148 c-0.2345-0.47196,0.06029-1.01684,0.51406-1.45108c0.8859-0.84777,2.73073-1.44706,3.94468-1.66553 c0.76848-0.13831,1.60126-0.15119,2.4561-0.20702c1.81937-0.04154,3.60954,0.15714,5.33228,0.24957 c1.35532,0.07272,2.78543,0.12996,4.2416,0.11198c3.8619-0.04768,7.85302-0.67164,10.71194-3.29372 c0.76836-0.70471,1.74465-1.83852,2.18398-2.74509C119.35897,110.66101,116.99504,108.02026,115.92722,107.6941z" 
            transform="translate(431.981497 -125.53706)" 
            stroke-width="0" 
            stroke-linejoin="miter" 
            stroke-miterlimit="2" 
            fill="#fcfcfc" 
            stroke="#fcfcfc">
            </path> 
            
            <path 
            class="c2" 
            d="M103.61374,95.30055c-1.952,0-3.99464,0.61752-5.94807,2.08114 c1.72293-1.0545,3.20936-0.96243,3.72274-0.43236c0.69798,0.72066,1.05019,1.73694,1.2052,2.95844 c0.18476,2.13798-0.16978,4.58966-0.80248,6.91516c-0.59111,2.17259-1.83849,5.17509-2.36819,6.3408 c-0.75368,1.65858-1.77675,3.25433-2.93713,4.67275c-1.5545,1.93423-3.43636,3.47254-5.50214,3.72225 c-1.79544,0.21703-3.62453-0.23357-4.37675-1.9668c0.01264,0.91944,0.19183,1.71328,0.51717,2.42443 c1.12804,2.27087,3.6324,3.52637,6.7459,3.52637c4.77688,0,9.13001-2.98869,12.1897-7.34471 c1.09421-1.55779,2.01036-3.27235,2.73959-5.11349c1.16114-2.93161,1.7985-6.15207,1.78474-9.30498 C110.55614,97.39336,106.58305,95.30055,103.61374,95.30055z" 
            transform="translate(431.981497 -125.53706)" 
            stroke-width="0" 
            stroke-linejoin="miter" 
            stroke-miterlimit="2" 
            fill="#5193f0" 
            stroke="#5193f0">
            </path> 
            
            <linearGradient 
            id="2c90db3c-0880-462b-9df9-c4581a2ba354" 
            gradientUnits="userSpaceOnUse" 
            x1="102.59411" 
            y1="118.37524" 
            x2="120.82781" 
            y2="109.29443"> 
            
            <stop 
            offset="0.12684" 
            style="stop-color:#000000">
            </stop> 
            
            <stop 
            offset="0.29007" 
            style="stop-color:#000000;stop-opacity:0.68377">
            </stop> 
            
            <stop 
            offset="0.64301" 
            style="stop-color:#000000;stop-opacity:0">
            </stop> 

            </linearGradient> 
            
            <path 
            class="highlight" 
            fill="url(#2c90db3c-0880-462b-9df9-c4581a2ba354)" 
            d="M115.92722,107.69411c-0.21222,0.38885-1.81299,3.40161-4.03223,4.53613 c-0.85693,0.43805-1.94073,0.7049-3.0957,0.85431c-0.72925,1.84113-1.64539,3.55566-2.73956,5.11346 c3.86188-0.04767,7.85297-0.67163,10.71191-3.2937c0.76837-0.70471,1.74463-1.83856,2.18396-2.74512 C119.35898,110.66096,116.99503,108.02022,115.92722,107.69411z" 
            transform="translate(431.981497 -125.53706)" 
            stroke-width="0" 
            stroke-linejoin="miter" 
            stroke-miterlimit="2" 
            opacity="0.52">
            </path> 

            <linearGradient 
            id="b1cd95bf-a78e-4220-9b41-7e07bbb7cd9e" 
            gradientUnits="userSpaceOnUse" 
            x1="100.43628" 
            y1="120.11202" 
            x2="88.1159" 
            y2="114.67406">

                <stop offset="0.20465" 
                style="stop-color:#000000">
                </stop> 

            <stop 
            offset="0.40299" 
            style="stop-color:#000000;stop-opacity:0.68377">
            </stop> 
            
            <stop 
            offset="0.83186" 
            style="stop-color:#000000;stop-opacity:0">
            </stop> 

            </linearGradient> 
            <path 
            class="highlight" 
            fill="url(#b1cd95bf-a78e-4220-9b41-7e07bbb7cd9e)" 
            d="M90.98367,121.55873c-0.16614,0.01477-0.32544,0.02838-0.46271,0.02289 c-0.52966-0.04181-0.83618-0.1925-0.95001-0.42151c-0.2345-0.47198,0.0603-1.01685,0.5141-1.45105 c0.88586-0.84778,2.73071-1.44708,3.94464-1.66559c0.76849-0.13831,1.60126-0.15118,2.45612-0.20697 c1.1604-1.41846,2.18347-3.01422,2.93713-4.67279c0.00092-0.00201,0.0022-0.00507,0.00311-0.00708 c-3.35333-0.06146-6.79059-0.07837-9.27539,1.07538c-0.45001,0.20892-0.85828,0.47858-1.24261,0.77521 c-1.5965,1.23212-2.31018,3.09528-2.30896,4.35107c0.00006,0.08459,0.00198,0.15119,0.00784,0.23365 c0.15182,0.34528,0.34258,0.64255,0.57191,0.89119c0.27225,0.29519,0.59019,0.52637,0.94398,0.70025 c0.50565,0.24851,1.07197,0.37318,1.63633,0.4121C90.16135,121.62322,90.5732,121.60835,90.98367,121.55873z"
            transform="translate(431.981497 -125.53706)" stroke-width="0" stroke-linejoin="miter" stroke-miterlimit="2" opacity="0.52">
            </path> <radialGradient id="eb5b5d69-37cb-4428-b69c-97636bc1c0d0" cx="103.61335" cy="107.01159" r="23.01468" gradientUnits="userSpaceOnUse" transform="translate(431.981497 -125.53706)"> <stop offset="0.67129" style="stop-color:#000000;stop-opacity:0"></stop> <stop offset="0.92346" style="stop-color:#000000"></stop> 
            </radialGradient> 
            
            <path 
            class="highlight" 
            fill="url(#eb5b5d69-37cb-4428-b69c-97636bc1c0d0)" 
            d="M90.98367,121.55873c-0.16614,0.01477-0.32544,0.02838-0.46271,0.02289 c-0.52966-0.04181-0.83618-0.1925-0.95001-0.42151c-0.2345-0.47198,0.0603-1.01685,0.5141-1.45105 c0.88586-0.84778,2.73071-1.44708,3.94464-1.66559c0.76849-0.13831,1.60126-0.15118,2.45612-0.20697 c1.1604-1.41846,2.18347-3.01422,2.93713-4.67279c0.00092-0.00201,0.0022-0.00507,0.00311-0.00708 c-3.35333-0.06146-6.79059-0.07837-9.27539,1.07538c-0.45001,0.20892-0.85828,0.47858-1.24261,0.77521 c-1.5965,1.23212-2.31018,3.09528-2.30896,4.35107c0.00006,0.08459,0.00198,0.15119,0.00784,0.23365 c0.15166,0.34492,0.34289,0.64272,0.57191,0.89119c0.27413,0.29743,0.58839,0.52634,0.94398,0.70025 c0.50811,0.24848,1.06818,0.37233,1.63022,0.41167C90.15707,121.62334,90.5722,121.60847,90.98367,121.55873z" transform="translate(431.981497 -125.53706)" stroke-width="0" stroke-linejoin="miter" stroke-miterlimit="2" opacity="0.52"></path> <linearGradient id="63de7b75-3457-4034-99db-749f95e7513a" gradientUnits="userSpaceOnUse" x1="86.4501" y1="114.90235" x2="102.38502" y2="95.60006"> <stop offset="0.02264" style="stop-color:#000000"></stop> <stop offset="0.16971" style="stop-color:#000000;stop-opacity:0.68377"></stop> <stop offset="0.48772" style="stop-color:#000000;stop-opacity:0"></stop> <stop offset="0.69872" style="stop-color:#000000;stop-opacity:0"></stop> <stop offset="0.95067" style="stop-color:#000000"></stop> </linearGradient> <path class="highlight" fill="url(#63de7b75-3457-4034-99db-749f95e7513a)" d="M101.3884,96.9493c-0.23145-0.23897-0.66359-0.38952-1.22464-0.38484 c-0.67359,0.00562-1.53367,0.23445-2.46432,0.79555c-0.00861,0.00525-0.01611,0.00934-0.02478,0.01465 c-0.46704,0.36493-1.66693,1.35608-2.60663,2.53021c-1.409,1.76044-1.90558,2.52118-3.61053,5.18311 c-0.00458,0.01233-0.00903,0.02405-0.01361,0.03638c-0.48138,1.30377-2.0966,6.10075-3.42271,10.72691 c0.26099-0.3067,0.5479-0.58237,0.88689-0.84403c0.38434-0.29663,0.7926-0.56628,1.24261-0.77521 c1.18182-2.43726,2.51953-4.70502,3.93915-6.72571c0.78809-1.12177,2.02905-2.8916,3.4408-4.427 c0.73628-0.80071,1.59329-1.61907,2.48398-2.22954c0.42514-0.29139,0.92028-0.5751,1.43027-0.75175 c0.28424-0.09846,0.58935-0.17091,0.88603-0.18781c0.13231-0.00753,0.22189-0.00174,0.26271-0.00241 C102.43863,98.68623,102.0864,97.67,101.3884,96.9493z" 
            transform="translate(431.981497 -125.53706)" 
            stroke-width="0" 
            stroke-linejoin="miter" 
            stroke-miterlimit="2" 
            opacity="0.52">
            </path> 

            <linearGradient 
            id="fd6ba0a4-8cd2-42d7-9b14-5b60c17a9ddc" 
            gradientUnits="userSpaceOnUse" 
            x1="86.36677" 
            y1="123.80167" 
            x2="89.09961" 
            y2="112.07466"> 
            
            <stop 
            offset="0.03106" 
            style="stop-color:#000000">
            </stop> 
            
            <stop 
            offset="0.33075" 
            style="stop-color:#000000;stop-opacity:0.68377">
            </stop> 
            
            <stop 
            offset="0.97874" 
            style="stop-color:#000000;stop-opacity:0">
            </stop> 

            </linearGradient> 
            
            <path 
            class="highlight" 
            fill="url(#fd6ba0a4-8cd2-42d7-9b14-5b60c17a9ddc)" 
            d="M86.18893,125.18123c0.27649-1.06506,0.65857-2.37579,0.93518-3.16486 c-0.17712-0.38708-0.30865-0.78741-0.39587-1.23047c-0.06597,0.28853-0.13335,0.56273-0.27242,1.26499 C86.31054,122.78455,85.99971,124.46391,86.18893,125.18123z" 
            transform="translate(431.981497 -125.53706)" 
            stroke-width="0" 
            stroke-linejoin="miter" 
            stroke-miterlimit="2" 
            opacity="0.52">
            </path> 
            
            <linearGradient 
            id="57081e20-9351-48a9-89f6-501e97ac0917" 
            gradientUnits="userSpaceOnUse" 
            x1="109.12383" 
            y1="92.65407" 
            x2="91.77456" 
            y2="128.74852"> 
            
            <stop 
            offset="0.03924" 
            style="stop-color:#000000">
            </stop> 
            
            <stop 
            offset="0.11837" 
            style="stop-color:#000000;stop-opacity:0.68377">
            </stop> 
            
            <stop 
            offset="0.28947" 
            style="stop-color:#000000;stop-opacity:0">
            </stop> 
            
            <stop 
            offset="0.71089" 
            style="stop-color:#000000;stop-opacity:0">
            </stop> 
            
            <stop 
            offset="0.97353" 
            style="stop-color:#000000">
            </stop> 
            
            </linearGradient> 
            
            <path 
            class="highlight" 
            fill="url(#57081e20-9351-48a9-89f6-501e97ac0917)" 
            d="M103.61374,95.30055c-1.952,0-3.99271,0.61598-5.94613,2.07961 c1.72292-1.0545,3.20742-0.96089,3.7208-0.43082c0.69798,0.72066,1.05019,1.73694,1.2052,2.95844 c0.18476,2.13798-0.16978,4.58966-0.80248,6.91516c-0.59111,2.17259-1.83849,5.17509-2.36819,6.3408 c-0.75368,1.65858-1.77675,3.25433-2.93713,4.67275c-1.5545,1.93423-3.43636,3.47254-5.50214,3.72225 c-1.79544,0.21703-3.62453-0.23357-4.37675-1.9668c0.01264,0.91944,0.19183,1.71328,0.51717,2.42443 c1.12804,2.27087,3.6324,3.52637,6.7459,3.52637c4.77688,0,9.13001-2.98869,12.1897-7.34471 c1.09421-1.55779,2.01036-3.27235,2.73959-5.11349c1.16114-2.93161,1.7985-6.15207,1.78474-9.30498 C110.55614,97.39336,106.58305,95.30055,103.61374,95.30055z" 
            transform="translate(431.981497 -125.53706)" 
            stroke-width="0" 
            stroke-linejoin="miter" 
            stroke-miterlimit="2" 
            opacity="0.52">
            </path> 
            
            <linearGradient 
            id="e7d9960d-046a-4536-a286-326b355c099b" 
            gradientUnits="userSpaceOnUse" 
            x1="80.22448" 
            y1="137.08774" 
            x2="98.59182" 
            y2="66.31223"> 
            <stop 
            offset="0.13099" 
            style="stop-color:#000000">
            </stop> 
            
            <stop 
            offset="0.21539" 
            style="stop-color:#000000;stop-opacity:0.68377">
            </stop> 
            
            <stop 
            offset="0.39789" 
            style="stop-color:#000000;stop-opacity:0">
            </stop> 
            
            <stop 
            offset="0.68078" 
            style="stop-color:#000000;stop-opacity:0">
            </stop> 
            <stop offset="0.95098" 
            style="stop-color:#000000">
            </stop> 
            </linearGradient> 
            <path 
            class="highlight" 
            fill="url(#e7d9960d-046a-4536-a286-326b355c099b)" 
            d="M86.72736,120.78144c-0.07043-0.35803-0.11192-0.74432-0.11973-1.14709 c0.00189,0.10016-0.01117-0.26044-0.00653-0.39691c0.01942-0.56893,0.16733-1.22709,0.48321-1.91432 c0.22703-0.49395,0.54802-1.01514,0.93685-1.47187c0.2246-0.78335,0.44302-1.52287,0.6775-2.29909 c1.15009-3.80724,2.34546-7.3452,2.74522-8.42782c3.93066-10.64465,7.56189-18.09882,7.77777-21.76074 c0.10345-1.75555-0.50696-3.27692-1.63696-4.29175c-0.94855-0.85187-2.24786-1.34277-3.74341-1.34277 c-0.87402,0-1.58667,0.07452-1.8916,0.28809c0.34778,1.47235-3.65857,12.58752-7.3573,23.23499 c-2.49786,7.19031-3.6687,13.2547-3.59009,17.02014c0.08514,4.07886,1.41553,7.27045,4.01819,7.27045 c0.56256,0,1.00281-0.20062,1.16846-0.36151C85.94687,124.26373,86.51584,121.70647,86.72736,120.78144z" 
            transform="translate(431.981497 -125.53706)" 
            stroke-width="0" 
            stroke-linejoin="miter" 
            stroke-miterlimit="2" 
            opacity="0.52">
            </path> 
            </g>
        <!--B-->


        <!--I-->

        <g 
        id="path21957" 
        aria-label="i" 
        transform="translate(0 353.8278) translate(581.1316465000001 -95.18439999999998) scale(4.55) translate(-545.97363 43.128)"> 
            <path 
            class="c1" 
            d="M108.52492,107.69497c-2.1976,3.97845-8.32465,13.32818-12.60987,13.32818 c-1.42373,0.20222,0.22934,2.40821,1.93652,3.17136c1.40555,0.62831,2.57644-0.03923,3.89819-0.79248 c2.43789-1.8149,7.30521-6.21435,9.80113-11.17444C111.96619,110.82724,109.73093,108.15446,108.52492,107.69497z" 
            transform="translate(457.575257 -125.538882)" 
            stroke-width="0" 
            stroke-linejoin="miter" 
            stroke-miterlimit="2" 
            fill="#fcfcfc" 
            stroke="#fcfcfc">
            </path> 

        <path 
        class="c2" 
        d="M95.7899,120.37534c-0.04615-0.6415,0.00083-1.3997,0.19801-2.31079 c0.39246-1.81338,1.25253-3.91719,1.87255-5.6018c1.85161-5.03082,4.11061-9.71986,4.11061-12.55145 c0-2.98911-3.37082-4.61637-6.51312-4.61637c-0.87439,0-1.60217,0.0805-1.90722,0.29409 c0.35519,2.132-1.62508,6.30962-3.21578,11.95281c-1.1915,4.22694-2.80432,9.5183-1.37614,13.19938 c1.16936,3.01398,4.20689,4.80121,7.09525,4.80121c2.50558,0,4.53245-1.36727,5.6957-2.1404 c-2.67966,0.98412-5.32114,0.21197-5.83472-2.37888C95.87971,120.84492,95.80389,120.5699,95.7899,120.37534z" 
        transform="translate(457.575257 -125.538882)" 
        stroke-width="0" 
        stroke-linejoin="miter" 
        stroke-miterlimit="2" 
        fill="#5193f0" 
        stroke="#5193f0">
        </path> 

        <path 
        class="c2" 
        d="M103.77286,84.84531c-0.78549-1.59464-3.1255-2.43059-5.19401-2.43441 c-0.76328-0.00141-1.44218,0.08125-1.71267,0.21556c0.28181,1.41307-0.71973,3.09876-0.71973,5.1123 c0,2.59908,2.61093,3.96094,5.32814,3.96094c0.76331,0,1.37341,0.01659,1.65623-0.21582 c-0.08263-0.41048-0.07523-0.89369-0.00101-1.35534C103.39728,88.46516,104.43178,86.18299,103.77286,84.84531z" 
        transform="translate(457.575257 -125.538882)" 
        stroke-width="0" 
        stroke-linejoin="miter" 
        stroke-miterlimit="2" 
        fill="#5193f0" 
        stroke="#5193f0">
            </path> <linearGradient id="810666df-810b-42a9-973d-badda56ae358" 
            gradientUnits="userSpaceOnUse" x1="96.50286" y1="126.27817" x2="110.23282" y2="108.62537"> <stop offset="0.04384" style="stop-color:#000000">
            </stop> <stop offset="0.22121" style="stop-color:#000000;stop-opacity:0.68377"></stop> <stop offset="0.60474" style="stop-color:#000000;stop-opacity:0">
            </stop> </linearGradient> <path class="highlight" fill="url(#810666df-810b-42a9-973d-badda56ae358)" d="M108.52493,107.69496c-2.19763,3.97845-8.32465,13.32819-12.60986,13.32819 c0.51355,2.59082,3.15503,3.36298,5.83472,2.37885c2.43787-1.81488,7.30518-6.21436,9.80109-11.17444 C111.96622,110.82722,109.73093,108.15443,108.52493,107.69496z" 
            transform="translate(457.575257 -125.538882)" stroke-width="0" stroke-linejoin="miter" stroke-miterlimit="2" opacity="0.52">
            </path> <linearGradient id="656f49f9-b105-4566-ac0b-695d003df818" gradientUnits="userSpaceOnUse" x1="99.31789" y1="75.04972" x2="92.88701" y2="143.17978"> 
                <stop offset="0.20476" style="stop-color:#000000">
            </stop> <stop offset="0.27299" style="stop-color:#000000;stop-opacity:0.68377"></stop> <stop offset="0.42054" style="stop-color:#000000;stop-opacity:0">
            </stop> <stop offset="0.61239" style="stop-color:#000000;stop-opacity:0"></stop> <stop offset="0.78042" style="stop-color:#000000">
            </stop> </linearGradient> <path class="highlight" fill="url(#656f49f9-b105-4566-ac0b-695d003df818)" d="M95.7899,120.37534c-0.04615-0.6415,0.00083-1.3997,0.19801-2.31079 c0.39246-1.81338,1.25253-3.91719,1.87255-5.6018c1.85161-5.03082,4.11061-9.71986,4.11061-12.55145 c0-2.98911-3.37082-4.61637-6.51312-4.61637c-0.87439,0-1.60217,0.0805-1.90722,0.29409 c0.35519,2.132-1.62508,6.30962-3.21578,11.95281c-1.1915,4.22694-2.80432,9.5183-1.37614,13.19938 c1.16936,3.01398,4.20689,4.80121,7.09525,4.80121c2.50558,0,4.53245-1.36727,5.6957-2.1404 c-2.67966,0.98412-5.32114,0.21197-5.83472-2.37888C95.87971,120.84492,95.80389,120.5699,95.7899,120.37534z" 
            transform="translate(457.575257 -125.538882)" stroke-width="0" stroke-linejoin="miter" stroke-miterlimit="2" opacity="0.52">
            </path> <linearGradient id="987abd0f-3db4-4a88-a599-589ff3580041" gradientUnits="userSpaceOnUse" x1="103.87296" y1="69.26792" x2="97.72168" y2="97.50787"> 
                <stop offset="0.35998" style="stop-color:#000000">
            </stop> <stop offset="0.42223" style="stop-color:#000000;stop-opacity:0.68377"></stop> 
        <stop offset="0.55686" style="stop-color:#000000;stop-opacity:0"></stop> <stop offset="0.6992" style="stop-color:#000000;stop-opacity:0">
            </stop> <stop offset="0.85909" style="stop-color:#000000"></stop> </linearGradient> <path class="highlight" fill="url(#987abd0f-3db4-4a88-a599-589ff3580041)" d="M103.77286,84.84531c-0.78549-1.59464-3.1255-2.43059-5.19401-2.43441 c-0.76328-0.00141-1.44218,0.08125-1.71267,0.21556c0.28181,1.41307-0.71973,3.09876-0.71973,5.1123 c0,2.59908,2.61093,3.96094,5.32814,3.96094c0.76331,0,1.37341,0.01659,1.65623-0.21582 c-0.08263-0.41048-0.07523-0.89369-0.00101-1.35534C103.39728,88.46516,104.43178,86.18299,103.77286,84.84531z" 
        transform="translate(457.575257 -125.538882)" 
        stroke-width="0" 
        stroke-linejoin="miter" 
        stroke-miterlimit="2" 
        opacity="0.52">
        </path> 
        </g>
        <!--I-->

        <!--N-->
        <g 
        id="path21959" 
        aria-label="n" 
        transform="translate(0 353.8278) translate(655.4109425000007 -36.54399999999998) scale(4.55) translate(-562.29875 30.24)"> 
           <path 
           class="c1" 
           d="M87.44781,125.18527c1.37914-6.93326,8.63188-15.55356,13.91312-20.84859 c3.08038-3.08843,3.85129-6.85708,2.65198-7.60664c-0.45198-0.28249-1.67046-0.44975-5.18932,2.83668 c-2.00151,2.03937-4.45332,4.95891-6.24607,7.21961c-1.49758,1.99174-3.16163,5.28005-4.27393,9.29874 C87.27669,119.79525,86.69878,124.21341,87.44781,125.18527z" 
           transform="translate(482.55857 -125.54026)" 
           stroke-width="0" 
           stroke-linejoin="miter" 
           stroke-miterlimit="2" 
           fill="#fcfcfc" 
           stroke="#fcfcfc">
           </path> 

           <path 
           class="c2" 
           d="M94.50188,99.90416c0-3.01913-2.83584-4.6039-5.97654-4.6039c-0.9025,0-1.63731,0.10546-1.94434,0.29803 c0.34975,1.90292-1.38661,6.8969-3.19496,12.08296c-1.78799,5.12768-3.64586,10.4634-3.64586,13.26259 c0,2.98759,2.70283,4.59708,5.76376,4.59708c0.87395,0,1.62981-0.12908,1.94387-0.35564 c-0.49374-2.45204,1.84689-8.84362,3.9525-14.75523C93.00056,105.93726,94.50188,101.75229,94.50188,99.90416z" 
           transform="translate(482.55857 -125.54026)" 
           stroke-width="0" 
           stroke-linejoin="miter" 
           stroke-miterlimit="2" 
           fill="#5193f0" 
           stroke="#5193f0">
           </path> 

            <path 
            class="c1" 
            d="M117.18355,107.69497c-2.02056,3.67793-8.00404,12.73796-12.24121,13.31134 c-0.52148,0.20469-0.17797,2.42612,1.52834,3.18889c1.40484,0.628,2.8058-0.09425,4.12688-0.84711 c2.61667-1.93155,7.02862-6.20139,9.60909-11.11063C120.63987,110.77934,118.31635,108.09112,117.18355,107.69497z" 
            transform="translate(482.55857 -125.54026)" 
            stroke-width="0" 
            stroke-linejoin="miter" 
            stroke-miterlimit="2" 
            fill="#fcfcfc" 
            stroke="#fcfcfc">
            </path> 
            
            <path 
            class="c2" 
            d="M104.92538,120.09682c0.04804-1.15149,0.36911-2.64533,0.82031-4.12673 c0.37786-1.24062,0.86279-2.58011,1.24145-3.6089c1.85067-5.02824,4.43379-10.21848,4.43379-13.04861 c0-2.535-2.90591-4.01244-5.66653-4.01228c-1.82854,0.0001-3.43336,0.74443-6.9308,4.26643 c1.59239-1.20493,3.1468-2.45596,3.90434-2.15136c1.30618,0.52519-0.87859,5.56157-2.41172,9.90837 c-1.30488,3.69965-3.08694,9.40427-1.76105,13.57397c0.94791,2.98102,3.47039,4.64455,6.45943,4.64455 c2.50431,0,4.42733-1.29443,5.58296-2.19416c-2.80561,1.03037-5.4445,0.53404-5.65523-2.34177 C104.91978,120.69843,104.91768,120.28129,104.92538,120.09682z" 
            transform="translate(482.55857 -125.54026)" 
            stroke-width="0" 
            stroke-linejoin="miter" 
            stroke-miterlimit="2" 
            fill="#5193f0" 
            stroke="#5193f0">
            </path> 
            
            <linearGradient 
            id="1ee2cc1b-b59c-40fb-8efc-b840089d4452" 
            gradientUnits="userSpaceOnUse" 
            x1="81.1659" 
            y1="125.11181" 
            x2="111.42548" 
            y2="92.89509"> 
            
            <stop 
            offset="0.16759" 
            style="stop-color:#000000">
            </stop> 
            
            <stop 
            offset="0.27087" 
            style="stop-color:#000000;stop-opacity:0.68377">
            </stop> 
            
            <stop 
            offset="0.49419" 
            style="stop-color:#000000;stop-opacity:0">
            </stop> 
            
            <stop 
            offset="0.58628" 
            style="stop-color:#000000;stop-opacity:0">
            </stop> 
            
            <stop 
            offset="0.79432" 
            style="stop-color:#000000">
            </stop> 
            
            </linearGradient> 
            <path 
            class="highlight" 
            fill="url(#1ee2cc1b-b59c-40fb-8efc-b840089d4452)" 
            d="M101.43393,104.25899c1.23932-3.37146,2.29773-6.44006,1.29401-6.84363 c-0.75757-0.30463-2.31195,0.94641-3.90436,2.15131c-1.93518,1.9718-4.28577,4.76111-6.06012,6.98749 c-0.42267,1.23206-0.88556,2.53503-1.36316,3.87585c-2.10559,5.91162-4.44623,12.30322-3.95251,14.75525 c1.37915-6.93329,8.6319-15.55353,13.91315-20.84857C101.38644,104.31111,101.40872,104.28468,101.43393,104.25899z" 
            transform="translate(482.55857 -125.54026)" 
            stroke-width="0" 
            stroke-linejoin="miter" 
            stroke-miterlimit="2" 
            opacity="0.52">
            </path> 
            
            <linearGradient 
            id="53afc238-c3f7-462c-bb71-9d2720aa5c2a" 
            gradientUnits="userSpaceOnUse" 
            x1="104.72634" 
            y1="126.5868" 
            x2="120.27078" 
            y2="107.79124"> 
            <stop 
            offset="0.05447" 
            style="stop-color:#000000">
            </stop> 
            
            <stop 
            offset="0.22508" 
            style="stop-color:#000000;stop-opacity:0.68377">
            </stop> 
            
            <stop 
            offset="0.59397" 
            style="stop-color:#000000;stop-opacity:0">
            </stop> 
            </linearGradient> 
            
            <path 
            class="highlight" 
            fill="url(#53afc238-c3f7-462c-bb71-9d2720aa5c2a)" 
            d="M117.18356,107.69496c-2.02057,3.67792-8.00403,12.73798-12.24121,13.31134 c0.21069,2.87579,2.84961,3.37213,5.65521,2.34174c2.61664-1.93152,7.02863-6.20135,9.60907-11.1106 C120.63986,110.77931,118.31638,108.09108,117.18356,107.69496z" 
            transform="translate(482.55857 -125.54026)" 
            stroke-width="0" 
            stroke-linejoin="miter" 
            stroke-miterlimit="2" 
            opacity="0.52">
            </path> 
            
            <linearGradient 
            id="85ab6bc5-1afc-42b9-b006-a389e6df7aa2" 
            gradientUnits="userSpaceOnUse" 
            x1="91.75264" 
            y1="77.43688" 
            x2="83.24174" 
            y2="137.81424"> 
            
            <stop 
            offset="0.19577" 
            style="stop-color:#000000">
            </stop> 
            
            <stop 
            offset="0.27417" 
            style="stop-color:#000000;stop-opacity:0.68377">
            </stop> 
            
            <stop 
            offset="0.44369" 
            style="stop-color:#000000;stop-opacity:0">
            </stop> 
            
            <stop 
            offset="0.629" 
            style="stop-color:#000000;stop-opacity:0">
            </stop> 
            
            <stop 
            offset="0.85095" 
            style="stop-color:#000000">
                </stop> 
                
                </linearGradient> 
                <path 
                class="highlight" 
                fill="url(#85ab6bc5-1afc-42b9-b006-a389e6df7aa2)" 
                d="M94.50188,99.90416c0-3.01913-2.83584-4.6039-5.97654-4.6039 c-0.9025,0-1.63731,0.10546-1.94434,0.29803c0.34975,1.90292-1.38661,6.8969-3.19496,12.08296 c-1.78799,5.12768-3.64586,10.4634-3.64586,13.26259c0,2.98759,2.70283,4.59708,5.76376,4.59708 c0.87395,0,1.62981-0.12908,1.94387-0.35564c-0.49374-2.45204,1.84689-8.84362,3.9525-14.75523 C93.00056,105.93726,94.50188,101.75229,94.50188,99.90416z" 
            transform="translate(482.55857 -125.54026)" 
            stroke-width="0" 
            stroke-linejoin="miter" 
            stroke-miterlimit="2" 
            opacity="0.52">
            </path> 
            <linearGradient 
            id="4bd93422-25ae-47a9-b32a-56177e1d5ba4" 
            gradientUnits="userSpaceOnUse" 
            x1="109.41134" 
            y1="78.10966" 
            x2="100.90043" 
            y2="138.48701"> 
            <stop 
            offset="0.24112" 
            style="stop-color:#000000">
            </stop> 
            
            <stop 
            offset="0.29913" 
            style="stop-color:#000000;stop-opacity:0.68377">
            </stop> 
            
            <stop 
            offset="0.42457" 
            style="stop-color:#000000;stop-opacity:0">
                </stop> 
                <stop offset="0.62868" style="stop-color:#000000;stop-opacity:0">
                </stop> 
                <stop 
                offset="0.82965" 
                style="stop-color:#000000">
                    </stop> 
                    </linearGradient> 
                    <path 
                    class="highlight" 
                    fill="url(#4bd93422-25ae-47a9-b32a-56177e1d5ba4)" 
                    d="M104.92538,120.09682c0.04804-1.15149,0.36911-2.64533,0.82031-4.12673 c0.37786-1.24062,0.86279-2.58011,1.24145-3.6089c1.85067-5.02824,4.43379-10.21848,4.43379-13.04861 c0-2.535-2.90591-4.01244-5.66653-4.01228c-1.82854,0.0001-3.43336,0.74443-6.9308,4.26643 c1.59239-1.20493,3.1468-2.45596,3.90434-2.15136c1.30618,0.52519-0.87859,5.56157-2.41172,9.90837 c-1.30488,3.69965-3.08694,9.40427-1.76105,13.57397c0.94791,2.98102,3.47039,4.64455,6.45943,4.64455 c2.50431,0,4.42733-1.29443,5.58296-2.19416c-2.80561,1.03037-5.4445,0.53404-5.65523-2.34177 C104.91978,120.69843,104.91768,120.28129,104.92538,120.09682z" 
                    transform="translate(482.55857 -125.54026)" 
                    stroke-width="0" 
                    stroke-linejoin="miter" 
                    stroke-miterlimit="2" 
                    opacity="0.52">
                    </path> 
                    </g> 

        <!--N-->

          </g>
      <image 
      xlink:href="" 
      id="icon" 
      x="0" 
      y="0" 
      style="display: none;">
      </image>
    </g>
  </g>
</svg>
